# xmcd
#
# Track frame offsets:
# 150
# 23900
# 45307
# 60592
# 79537
# 93125
# 108752
# 124590
# 141967
# 158820
# 175645
# 190502
# 206925
# 238185
#
# Disc length: 3457 seconds
#
#
# Revision: 0
# Processed by: cddbd v1.5.2PL0 Copyright (c) Steve Scherf et al.
# Submitted via: FreeRIP 2.96 
#
DISCID=a90d7f0e
DTITLE=Various Artist - Moments of Love
DYEAR=2000
DGENRE=Ballad
TTITLE0=Dana Intarnational-Woman In Love
TTITLE1=Toby Bourke and George Michael-Waltz Away Dreaming
TTITLE2=Engelbert Humberdinck-Release Me
TTITLE3=Matthew Fisher-Why 'd I have to Fall in Love with You
TTITLE4=Lutricia McNeal-Someone loves you honey
TTITLE5=The Course feat.Spyte-Missing You
TTITLE6=Laurent Daniels-Cry on my Shoulder
TTITLE7=Fabio Volo-Io e Te
TTITLE8=Ferris-Girl
TTITLE9=Top-Loving You
TTITLE10=Jimmy Sommerville-Dark Sky
TTITLE11=Horse-Careful
TTITLE12=Marshal B-Come together When I dream
TTITLE13=Marks and Henrys-Jill (The Making of......)
EXTD=
EXTT0=
EXTT1=
EXTT2=
EXTT3=
EXTT4=
EXTT5=
EXTT6=
EXTT7=
EXTT8=
EXTT9=
EXTT10=
EXTT11=
EXTT12=
EXTT13=
PLAYORDER=
